REM DIRINDEX 1\2\6,1\2\7,1\2\8,1\3\9,1\3\10,1\3\11,1\4\12,1\4\13,1\4\14,1\5\15,1\5\16,1\5\17,1\5\18
REM DIRNAME cjc019,folder01,folder02,folder03,folder04,folder05,folder06,folder07,folder08,folder09,folder10,folder11,folder12,folder13,folder14,folder15,folder16,folder17
TITLE ""
FILE "2Q_t_0565-0581.mp3" MP3
  TRACK 01 AUDIO
    TITLE "12:cjc019_3188"
    INDEX 01 00:00:00
  TRACK 02 AUDIO
    TITLE "0:"
    INDEX 01 00:06:53
  TRACK 03 AUDIO
    TITLE "13:cjc019_3189"
    INDEX 01 00:07:64
  TRACK 04 AUDIO
    TITLE "0:"
    INDEX 01 00:08:73
  TRACK 05 AUDIO
    TITLE "14:cjc019_3190"
    INDEX 01 00:09:55
  TRACK 06 AUDIO
    TITLE "0:"
    INDEX 01 00:11:74
  TRACK 07 AUDIO
    TITLE "13:cjc019_3191"
    INDEX 01 00:12:58
  TRACK 08 AUDIO
    TITLE "0:"
    INDEX 01 00:13:67
  TRACK 09 AUDIO
    TITLE "14:cjc019_3192"
    INDEX 01 00:14:47
  TRACK 10 AUDIO
    TITLE "0:"
    INDEX 01 00:16:61
  TRACK 11 AUDIO
    TITLE "13:cjc019_3193"
    INDEX 01 00:17:39
  TRACK 12 AUDIO
    TITLE "0:"
    INDEX 01 00:18:39
  TRACK 13 AUDIO
    TITLE "14:cjc019_3194"
    INDEX 01 00:19:24
  TRACK 14 AUDIO
    TITLE "0:"
    INDEX 01 00:21:41
  TRACK 15 AUDIO
    TITLE "13:cjc019_3195"
    INDEX 01 00:22:27
  TRACK 16 AUDIO
    TITLE "0:"
    INDEX 01 00:23:42
  TRACK 17 AUDIO
    TITLE "14:cjc019_3196"
    INDEX 01 00:24:27
  TRACK 18 AUDIO
    TITLE "0:"
    INDEX 01 00:25:27
  TRACK 19 AUDIO
    TITLE "13:cjc019_3197"
    INDEX 01 00:26:13
  TRACK 20 AUDIO
    TITLE "0:"
    INDEX 01 00:27:28
  TRACK 21 AUDIO
    TITLE "14:cjc019_3198"
    INDEX 01 00:28:10
  TRACK 22 AUDIO
    TITLE "0:"
    INDEX 01 00:29:19
  TRACK 23 AUDIO
    TITLE "13:cjc019_3199"
    INDEX 01 00:29:74
  TRACK 24 AUDIO
    TITLE "0:"
    INDEX 01 00:31:10
  TRACK 25 AUDIO
    TITLE "14:cjc019_3200"
    INDEX 01 00:31:73
  TRACK 26 AUDIO
    TITLE "0:"
    INDEX 01 00:34:08
  TRACK 27 AUDIO
    TITLE "13:cjc019_3201"
    INDEX 01 00:34:57
  TRACK 28 AUDIO
    TITLE "0:"
    INDEX 01 00:36:15
  TRACK 29 AUDIO
    TITLE "14:cjc019_3202"
    INDEX 01 00:36:70
  TRACK 30 AUDIO
    TITLE "0:"
    INDEX 01 00:40:62
  TRACK 31 AUDIO
    TITLE "13:cjc019_3203"
    INDEX 01 00:41:44
  TRACK 32 AUDIO
    TITLE "0:"
    INDEX 01 00:42:72
  TRACK 33 AUDIO
    TITLE "14:cjc019_3204"
    INDEX 01 00:43:54
  TRACK 34 AUDIO
    TITLE "0:"
    INDEX 01 00:46:39
  TRACK 35 AUDIO
    TITLE "13:cjc019_3205"
    INDEX 01 00:47:17
  TRACK 36 AUDIO
    TITLE "0:"
    INDEX 01 00:48:44
  TRACK 37 AUDIO
    TITLE "14:cjc019_3206"
    INDEX 01 00:49:29
  TRACK 38 AUDIO
    TITLE "0:"
    INDEX 01 00:53:13
  TRACK 39 AUDIO
    TITLE "13:cjc019_3207"
    INDEX 01 00:53:68
  TRACK 40 AUDIO
    TITLE "0:"
    INDEX 01 00:55:24
  TRACK 41 AUDIO
    TITLE "14:cjc019_3208"
    INDEX 01 00:56:08
  TRACK 42 AUDIO
    TITLE "0:"
    INDEX 01 00:57:27
  TRACK 43 AUDIO
    TITLE "13:cjc019_3209"
    INDEX 01 00:58:05
  TRACK 44 AUDIO
    TITLE "0:"
    INDEX 01 00:59:30
  TRACK 45 AUDIO
    TITLE "14:cjc019_3210"
    INDEX 01 01:00:13
  TRACK 46 AUDIO
    TITLE "0:"
    INDEX 01 01:03:08
  TRACK 47 AUDIO
    TITLE "13:cjc019_3211"
    INDEX 01 01:03:63
  TRACK 48 AUDIO
    TITLE "0:"
    INDEX 01 01:05:30
  TRACK 49 AUDIO
    TITLE "14:cjc019_3212"
    INDEX 01 01:06:16
  TRACK 50 AUDIO
    TITLE "0:"
    INDEX 01 01:08:27
  TRACK 51 AUDIO
    TITLE "13:cjc019_3213"
    INDEX 01 01:09:10
  TRACK 52 AUDIO
    TITLE "0:"
    INDEX 01 01:10:26
  TRACK 53 AUDIO
    TITLE "14:cjc019_3214"
    INDEX 01 01:11:07
  TRACK 54 AUDIO
    TITLE "0:"
    INDEX 01 01:13:24
  TRACK 55 AUDIO
    TITLE "13:cjc019_3215"
    INDEX 01 01:13:73
  TRACK 56 AUDIO
    TITLE "0:"
    INDEX 01 01:15:23
  TRACK 57 AUDIO
    TITLE "14:cjc019_3216"
    INDEX 01 01:16:09
  TRACK 58 AUDIO
    TITLE "0:"
    INDEX 01 01:18:49
  TRACK 59 AUDIO
    TITLE "13:cjc019_3217"
    INDEX 01 01:19:27
  TRACK 60 AUDIO
    TITLE "0:"
    INDEX 01 01:20:67
  TRACK 61 AUDIO
    TITLE "14:cjc019_3218"
    INDEX 01 01:21:45
  TRACK 62 AUDIO
    TITLE "0:"
    INDEX 01 01:23:09
  TRACK 63 AUDIO
    TITLE "13:cjc019_3219"
    INDEX 01 01:23:62
  TRACK 64 AUDIO
    TITLE "0:"
    INDEX 01 01:25:02
  TRACK 65 AUDIO
    TITLE "14:cjc019_3220"
    INDEX 01 01:25:60
  TRACK 66 AUDIO
    TITLE "0:"
    INDEX 01 01:28:02
  TRACK 67 AUDIO
    TITLE "13:cjc019_3221"
    INDEX 01 01:28:55
  TRACK 68 AUDIO
    TITLE "0:"
    INDEX 01 01:29:70
  TRACK 69 AUDIO
    TITLE "14:cjc019_3222"
    INDEX 01 01:30:50
  TRACK 70 AUDIO
    TITLE "0:"
    INDEX 01 01:31:47
